<svg width="54" height="54" viewBox="0 0 54 54" fill="none" xmlns="http://www.w3.org/2000/svg">
<rect width="54" height="54" rx="6" fill="#CBEA7B"/>
<path d="M22.732 41.1169C23.7867 41.1169 24.4396 40.5268 24.4271 39.4973L24.176 25.397C24.176 24.9576 24.3643 24.6312 24.7535 24.4554C26.4109 23.7271 27.1266 22.9613 27.0387 20.764L26.6871 13.0547C26.662 12.5022 26.3356 12.1883 25.8208 12.1883C25.3311 12.1883 25.0298 12.5148 25.0298 13.0798L25.1176 20.5756C25.1176 21.0151 24.8414 21.2913 24.4271 21.2913C24.0002 21.2913 23.6988 21.0276 23.6988 20.6133L23.5733 12.8538C23.5607 12.3139 23.2468 12 22.732 12C22.2173 12 21.9159 12.3139 21.9034 12.8538L21.7778 20.6133C21.7778 21.0276 21.4765 21.2913 21.0496 21.2913C20.6352 21.2913 20.3464 21.0151 20.3464 20.5756L20.4343 13.0798C20.4343 12.5148 20.1455 12.1883 19.6433 12.1883C19.1285 12.1883 18.8021 12.5022 18.777 13.0547L18.438 20.764C18.3375 22.9613 19.0532 23.7271 20.7106 24.4554C21.0998 24.6312 21.2881 24.9576 21.2881 25.397L21.0496 39.4973C21.037 40.5268 21.6773 41.1169 22.732 41.1169ZM32.5507 30.1682L32.287 39.4345C32.2494 40.5268 32.9147 41.1169 33.9569 41.1169C35.0242 41.1169 35.6771 40.577 35.6771 39.5726V12.9417C35.6771 12.3013 35.2376 12 34.7856 12C34.3085 12 33.9946 12.2511 33.5929 12.8412C31.5713 15.6788 30.2405 20.99 30.2405 26.0123V26.6275C30.2405 27.4938 30.5543 28.1342 31.1821 28.5485L31.9229 29.0508C32.3749 29.3646 32.5757 29.7163 32.5507 30.1682Z" fill="#262626"/>
</svg>
