<svg width="54" height="54" viewBox="0 0 54 54" fill="none" xmlns="http://www.w3.org/2000/svg">
<rect width="54" height="54" rx="6" fill="#CBEA7B"/>
<g clip-path="url(#clip0_141_1146)">
<path d="M39.9377 20.8358L30.1798 16.3705C29.1632 15.912 28.3359 15.6927 27.5086 15.7127C26.6913 15.6927 25.864 15.912 24.8374 16.3705L15.0895 20.8358C14.4516 21.1249 14.1426 21.6332 14.1426 22.1415C14.1426 22.6498 14.4516 23.1482 15.0895 23.4473L19.196 25.3211L25.5052 22.3608C25.4454 22.2911 25.4254 22.2113 25.4254 22.1415C25.4254 21.5136 26.482 21.0352 27.5485 21.0352C28.6249 21.0352 29.6615 21.5136 29.6615 22.1415C29.6615 22.7894 28.6249 23.2778 27.5485 23.2778C27.2196 23.2778 26.8907 23.2279 26.6016 23.1482L20.5814 25.9689L24.8374 27.9225C25.864 28.3909 26.6913 28.5903 27.5086 28.5803C28.3359 28.5903 29.1632 28.3909 30.1798 27.9225L39.9377 23.4473C40.5756 23.1482 40.8846 22.6498 40.8846 22.1415C40.8846 21.6332 40.5756 21.1249 39.9377 20.8358ZM20.5415 27.4441V33.5042C22.216 34.5208 24.6082 35.1387 27.5086 35.1387C33.3893 35.1387 37.1768 32.6171 37.1768 29.6369V26.2081L30.7479 29.1485C29.5817 29.6867 28.5253 29.9558 27.5086 29.9459C26.5019 29.9558 25.4354 29.6867 24.2692 29.1485L20.5415 27.4441ZM17.8504 26.2081V29.6369C17.8504 30.504 18.3487 31.5804 19.2458 32.4975V26.856L17.8504 26.2081ZM19.2458 35.8165H20.5415V33.5042C20.0432 33.2051 19.6046 32.8663 19.2458 32.4975V35.8165ZM18.4584 35.8864V38.5077C18.4584 39.2951 18.9667 39.8034 19.7541 39.8034H20.0232C20.8106 39.8034 21.319 39.2951 21.319 38.5077V35.8864C21.319 35.0989 20.8106 34.5906 20.0232 34.5906H19.7541C18.9667 34.5906 18.4584 35.0989 18.4584 35.8864Z" fill="#262626"/>
</g>
<defs>
<clipPath id="clip0_141_1146">
<rect width="30" height="30" fill="white" transform="translate(12 12)"/>
</clipPath>
</defs>
</svg>
