<svg width="104" height="49" viewBox="0 0 104 49" fill="none" xmlns="http://www.w3.org/2000/svg">
<rect x="0.5" y="1" width="47" height="47" rx="5.5" fill="#F7FCE9"/>
<rect x="0.5" y="1" width="47" height="47" rx="5.5" stroke="#EEF8D3"/>
<path d="M32.3337 21.8852C32.3337 23.1739 31.8389 24.4118 30.9551 25.3274C28.921 27.4359 26.9482 29.6344 24.8381 31.6664C24.3544 32.1254 23.5871 32.1086 23.1243 31.6289L17.0451 25.3274C15.2076 23.4227 15.2076 20.3477 17.0451 18.443C18.9007 16.5195 21.9236 16.5195 23.7792 18.443L24.0001 18.672L24.221 18.4431C25.1107 17.5204 26.3223 17 27.5881 17C28.8538 17 30.0654 17.5204 30.9551 18.443C31.8389 19.3587 32.3337 20.5965 32.3337 21.8852Z" stroke="#4C4C4C" stroke-width="1.5" stroke-linejoin="round"/>
<rect x="56.5" y="1" width="47" height="47" rx="5.5" fill="#F7FCE9"/>
<rect x="56.5" y="1" width="47" height="47" rx="5.5" stroke="#EEF8D3"/>
<path d="M74.167 32V19C74.167 17.8954 75.0624 17 76.167 17H83.8337C84.9382 17 85.8337 17.8954 85.8337 19V32L81.0818 28.9453C80.423 28.5217 79.5776 28.5217 78.9188 28.9453L74.167 32Z" stroke="#4C4C4C" stroke-width="1.5" stroke-linecap="round" stroke-linejoin="round"/>
</svg>
