<svg width="54" height="54" viewBox="0 0 54 54" fill="none" xmlns="http://www.w3.org/2000/svg">
<rect width="54" height="54" rx="6" fill="#CBEA7B"/>
<path d="M20.1784 39.9909H33.5127C36.0992 39.9909 37.405 38.6725 37.405 36.0609V17.0138C37.405 14.3896 36.1117 13.0713 33.5127 13.0713H30.3236C29.8966 13.0713 29.6078 13.3726 29.6078 13.8246C29.6078 13.8874 29.6078 13.9502 29.6078 14.0004C29.6078 15.6327 28.5029 16.612 26.8456 16.612C25.1882 16.612 24.0833 15.6327 24.0833 14.0004C24.0833 13.9502 24.0833 13.8874 24.0833 13.8246C24.0833 13.3726 23.7945 13.0713 23.3676 13.0713H20.1784C17.5794 13.0713 16.2861 14.3896 16.2861 17.0138V36.0609C16.2861 38.6725 17.5919 39.9909 20.1784 39.9909ZM22.0869 22.4254C21.6349 22.4254 21.3085 22.0864 21.3085 21.6343C21.3085 21.2074 21.6349 20.8684 22.0869 20.8684H31.6168C32.0563 20.8684 32.3826 21.2074 32.3826 21.6343C32.3826 22.0864 32.0563 22.4254 31.6168 22.4254H22.0869ZM22.0869 26.8826C21.6349 26.8826 21.3085 26.5436 21.3085 26.1168C21.3085 25.6773 21.6349 25.3383 22.0869 25.3383H26.5944C27.0465 25.3383 27.373 25.6773 27.373 26.1168C27.373 26.5436 27.0465 26.8826 26.5944 26.8826H22.0869Z" fill="#262626"/>
</svg>
